<svg xmlns="http://www.w3.org/2000/svg" version="1.1" xmlns:xlink="http://www.w3.org/1999/xlink" xmlns:svgjs="http://svgjs.com/svgjs" width="640.000000pt" height="640.000000pt"><svg version="1.0" xmlns="http://www.w3.org/2000/svg" width="640.000000pt" height="640.000000pt" viewBox="0 0 640.000000 640.000000" preserveAspectRatio="xMidYMid meet">
<metadata>
Created by potrace 1.14, written by Peter Selinger 2001-2017
</metadata>
<g transform="translate(0.000000,640.000000) scale(0.100000,-0.100000)" fill="#000000" stroke="none">
<path d="M3056 4343 c-3 -21 -6 -87 -6 -146 l0 -108 31 -17 c18 -9 82 -50 143
-91 61 -41 125 -83 143 -95 39 -25 39 -27 11 -45 -41 -25 -87 -30 -137 -15
-25 9 -58 19 -73 24 -21 6 -33 4 -50 -9 -20 -17 -21 -20 -8 -67 18 -68 78
-184 144 -284 31 -46 56 -93 56 -105 0 -31 -33 -58 -60 -50 -24 8 -83 79 -136
165 -32 52 -38 58 -55 47 -10 -6 -19 -16 -19 -21 0 -12 42 -85 100 -171 58
-87 65 -110 39 -136 -24 -24 -40 -24 -72 1 -28 22 -121 158 -156 228 -17 32
-27 42 -46 42 -39 0 -38 -4 59 -171 14 -26 24 -54 20 -62 -7 -20 -37 -30 -62
-23 -20 7 -87 104 -128 188 -19 40 -35 59 -52 63 -13 3 -27 3 -30 0 -3 -3 9
-36 27 -73 38 -79 38 -106 -1 -110 -22 -3 -31 5 -61 55 -128 213 -196 444
-199 679 0 63 -4 114 -9 114 -18 0 -160 -122 -219 -188 -155 -174 -255 -373
-306 -613 -28 -130 -26 -373 4 -508 58 -261 174 -474 356 -656 58 -58 193
-165 207 -165 2 0 4 51 5 113 1 176 30 301 101 442 110 216 296 358 563 428
29 7 146 11 330 12 267 0 291 2 375 24 306 80 485 261 565 574 10 41 21 110
25 154 l7 80 -53 26 c-94 44 -228 72 -444 92 -124 12 -165 41 -231 163 -15 30
-45 71 -66 93 -92 94 -304 159 -524 159 l-101 0 -7 -37z m495 -263 c13 0 37
-53 31 -70 -9 -28 -35 -50 -59 -50 -28 0 -63 33 -63 60 0 28 46 74 66 66 9 -3
20 -6 25 -6z"></path>
</g>
</svg><style>@media (prefers-color-scheme: light) { :root { filter: none; } }
</style></svg>